<?xml version="1.0" standalone="no"?>
<!DOCTYPE svg PUBLIC "-//W3C//DTD SVG 20010904//EN"
 "http://www.w3.org/TR/2001/REC-SVG-20010904/DTD/svg10.dtd">
<svg version="1.0" xmlns="http://www.w3.org/2000/svg"
 width="512.000000pt" height="512.000000pt" viewBox="0 0 512.000000 512.000000"
 preserveAspectRatio="xMidYMid meet">
<metadata>
Created by potrace 1.14, written by Peter Selinger 2001-2017
</metadata>
<g transform="translate(0.000000,512.000000) scale(0.100000,-0.100000)"
fill="#000000" stroke="none">
<path d="M2846 4940 c-73 -13 -183 -72 -248 -132 -56 -52 -138 -173 -138 -203
0 -26 -30 -29 -58 -6 -77 61 -132 92 -152 86 -30 -10 -25 -23 24 -53 127 -81
174 -141 209 -267 23 -81 47 -246 47 -317 0 -35 -8 -39 -99 -53 -71 -12 -123
-26 -163 -46 -10 -5 -27 -9 -37 -9 -11 0 -22 -4 -26 -9 -3 -6 -26 -20 -52 -33
-60 -30 -183 -135 -231 -198 -104 -136 -172 -251 -172 -291 0 -6 -6 -25 -14
-42 -18 -44 -46 -174 -46 -218 0 -23 7 -42 20 -54 19 -17 20 -17 29 6 5 13 15
53 21 89 18 102 42 192 60 225 9 17 32 57 50 90 126 230 274 350 512 416 114
32 302 22 413 -21 82 -32 199 -99 246 -140 49 -43 160 -183 182 -230 4 -8 16
-28 26 -45 11 -16 20 -36 20 -42 1 -7 12 -36 25 -65 47 -106 57 -162 75 -423
10 -131 21 -189 49 -258 7 -16 12 -30 12 -33 0 -19 119 -180 166 -226 32 -31
86 -83 120 -115 52 -50 144 -163 144 -177 0 -2 15 -27 34 -54 29 -43 76 -136
106 -207 5 -11 16 -47 26 -80 9 -33 23 -79 30 -103 20 -62 19 -335 -1 -399 -9
-26 -23 -73 -32 -103 -10 -30 -21 -59 -25 -65 -4 -5 -8 -17 -8 -27 0 -25 -116
-239 -139 -258 -4 -3 -22 -25 -41 -50 -61 -79 -93 -111 -186 -186 -79 -64
-243 -174 -259 -174 -4 0 -52 -22 -108 -48 -130 -62 -171 -76 -322 -108 -317
-68 -718 -41 -990 65 -33 14 -157 71 -210 98 -61 31 -202 123 -232 152 -12 12
-25 21 -27 21 -23 0 -194 191 -255 285 -41 62 -110 194 -131 250 -12 31 -38
134 -51 201 -11 59 -8 227 7 349 5 43 2 53 -15 69 -20 18 -21 18 -31 -8 -33
-87 -39 -379 -10 -491 23 -87 69 -224 89 -264 29 -56 136 -213 160 -235 12
-11 21 -25 21 -33 0 -39 298 -285 400 -329 8 -4 29 -17 45 -28 17 -12 41 -27
55 -33 106 -49 140 -63 150 -63 7 0 26 -6 43 -14 18 -8 41 -16 52 -19 11 -3
56 -15 100 -27 124 -33 194 -42 410 -47 238 -5 360 9 555 64 63 18 102 31 145
48 134 55 186 80 201 96 9 11 23 19 29 19 13 0 245 164 299 210 68 59 205 245
258 350 12 25 32 61 43 80 47 80 94 274 102 425 6 122 -36 359 -79 442 -61
116 -111 209 -117 213 -8 6 -25 34 -52 84 -12 22 -87 104 -167 184 -205 204
-260 295 -287 472 -8 55 -15 137 -15 182 0 99 -12 171 -52 303 -29 95 -64 171
-94 206 -8 8 -14 19 -14 22 0 15 -76 115 -129 171 -31 32 -80 76 -109 97 -86
65 -245 131 -347 144 -99 12 -92 4 -100 107 -3 51 -15 130 -26 176 -10 45 -19
92 -19 104 0 22 -6 23 105 -6 74 -19 182 -20 255 -2 75 19 89 25 131 58 20 15
41 28 46 28 6 0 37 29 71 63 95 99 161 258 131 315 -7 12 -16 22 -21 22 -5 0
-25 10 -46 23 -67 41 -128 58 -224 62 -51 2 -115 0 -142 -5z m239 -68 c73 -26
135 -63 135 -81 0 -9 -7 -25 -15 -35 -8 -11 -15 -30 -15 -43 0 -13 -4 -23 -9
-23 -5 0 -12 -11 -15 -25 -17 -66 -199 -205 -268 -205 -15 0 -30 -4 -33 -10
-3 -5 -46 -10 -95 -10 -49 0 -92 5 -95 10 -3 6 -18 10 -33 10 -15 0 -36 7 -46
15 -11 8 -28 15 -38 15 -10 0 -18 6 -18 13 0 13 34 47 48 47 4 0 24 15 45 33
69 61 209 120 310 133 26 3 45 9 42 15 -8 12 -182 12 -190 -1 -3 -5 -15 -10
-27 -10 -11 0 -32 -6 -46 -14 -24 -12 -46 -22 -92 -40 -8 -4 -28 -15 -45 -25
-70 -45 -60 -11 26 87 73 82 125 117 219 147 65 20 195 19 255 -3z"/>
</g>
</svg>
